#!OML:ASF F:\VICON\USERDATA\INSTALL\rory3\rory3.ASF
:FULLY-SPECIFIED
:DEGREES
471
root 0.126795 15.7979 -4.17696 -13.5378 -33.7388 2.70937
lowerback 18.4937 3.95876 -4.19725
upperback 9.30842 4.30598 0.579171
thorax -0.674878 1.91794 2.16757
lowerneck -21.2967 7.52586 -6.98444
upperneck 17.0094 11.6893 3.52457
head 8.12061 5.44431 3.74929
rclavicle -1.88845e-015 1.98785e-014
rhumerus -18.0476 9.13281 -82.9931
rradius 55.8743
rwrist 36.8889
rhand -27.9665 7.40752
rfingers 7.12502
rthumb -1.35353 -22.5679
lclavicle -1.88845e-015 1.98785e-014
lhumerus -14.8776 -25.9043 92.1574
lradius 62.6663
lwrist -31.699
lhand -12.1207 22.3683
lfingers 7.12502
lthumb 13.9407 51.881
rfemur -56.2431 -31.599 23.8167
rtibia 112.241
rfoot 2.76358 -5.02378
rtoes -0.952556
lfemur -58.4518 31.0603 -18.1166
ltibia 114.784
lfoot 10.912 -10.4285
ltoes -17.9609
472
root 0.125818 15.7939 -4.17498 -13.4482 -33.6852 2.68977
lowerback 18.4966 3.9602 -4.23886
upperback 9.32088 4.30094 0.578073
thorax -0.664985 1.91363 2.19098
lowerneck -21.3501 7.47148 -7.04551
upperneck 16.766 11.5861 3.73756
head 8.03478 5.42602 3.80762
rclavicle 4.36332e-014 -2.68359e-014
rhumerus -17.8435 8.79171 -83.0417
rradius 55.8099
rwrist 37.0561
rhand -27.9203 7.41475
rfingers 7.12502
rthumb -1.30893 -22.561
lclavicle 4.36332e-014 -2.68359e-014
lhumerus -14.7933 -25.7684 92.0659
lradius 62.6729
lwrist -31.3957
lhand -11.8862 21.7279
lfingers 7.12502
lthumb 14.1667 51.2249
rfemur -56.3599 -31.6799 23.838
rtibia 112.348
rfoot 2.59812 -4.94902
rtoes -1.39894
lfemur -58.6469 31.0682 -18.1885
ltibia 114.992
lfoot 10.9806 -10.5823
ltoes -19.8729
473
root 0.124702 15.7911 -4.17239 -13.3923 -33.7063 2.71646
lowerback 18.518 3.98039 -4.36842
upperback 9.3072 4.30543 0.596391
thorax -0.700203 1.91206 2.28024
lowerneck -21.4301 7.42724 -7.05358
upperneck 16.653 11.5073 3.85263
head 8.00643 5.40556 3.8367
rclavicle 1.2275e-014 -1.19271e-014
rhumerus -17.7207 8.59005 -83.0679
rradius 55.7558
rwrist 37.183
rhand -27.9344 7.51745
rfingers 7.12502
rthumb -1.3226 -22.4582
lclavicle 1.2275e-014 -1.19271e-014
lhumerus -14.7679 -25.3733 91.9951
lradius 62.7358
lwrist -31.4721
lhand -11.0067 20.8283
lfingers 7.12502
lthumb 15.014 50.2639
rfemur -56.5048 -31.6946 23.8887
rtibia 112.44
rfoot 2.53406 -4.92585
rtoes -2.29187
lfemur -58.8 31.196 -18.2601
ltibia 115.204
lfoot 10.8336 -10.5667
ltoes -21.8415
474
root 0.123368 15.7886 -4.16695 -13.3248 -33.7269 2.69403
lowerback 18.5035 3.96775 -4.45268
upperback 9.33022 4.27542 0.591516
thorax -0.670545 1.8931 2.32982
lowerneck -21.5849 7.39575 -6.94208
upperneck 16.5882 11.4317 3.89178
head 8.01907 5.38286 3.83011
rclavicle 2.48978e-014 7.95139e-016
rhumerus -17.7615 8.44869 -83.1322
rradius 55.8813
rwrist 37.3197
rhand -27.9549 7.60691
rfingers 7.12502
rthumb -1.34237 -22.3686
lclavicle 2.48978e-014 7.95139e-016
lhumerus -14.7552 -25.4067 91.8397
lradius 62.8959
lwrist -30.7081
lhand -11.3176 20.8933
lfingers 7.12502
lthumb 14.7145 50.3511
rfemur -56.6107 -31.7149 23.9536
rtibia 112.529
rfoot 2.38302 -4.9527
rtoes -2.85329
lfemur -58.9027 31.3034 -18.2822
ltibia 115.402
lfoot 10.8103 -10.4705
ltoes -22.7592
475
root 0.122518 15.7929 -4.16099 -13.2696 -33.772 2.67018
lowerback 18.4396 3.97632 -4.49809
upperback 9.3949 4.28188 0.577973
thorax -0.57036 1.89153 2.34537
lowerneck -21.7435 7.30984 -6.84506
upperneck 16.4612 11.2868 3.92139
head 8.01555 5.32754 3.81241
rclavicle 3.6477e-014 -2.59414e-014
rhumerus -17.9667 8.27738 -83.1418
rradius 56.2159
rwrist 37.3905
rhand -27.9617 7.78163
rfingers 7.12502
rthumb -1.34893 -22.1939
lclavicle 3.6477e-014 -2.59414e-014
lhumerus -14.7454 -25.9315 91.7022
lradius 63.0606
lwrist -29.1975
lhand -12.7289 21.6712
lfingers 7.12502
lthumb 13.3545 51.2232
rfemur -56.6578 -31.7334 23.9647
rtibia 112.607
rfoot 2.33542 -4.89779
rtoes -2.87985
lfemur -58.9792 31.4155 -18.2702
ltibia 115.593
lfoot 10.8164 -10.4482
ltoes -21.9996
